<?xml version="1.0" encoding="UTF-8" standalone="no"?>
<!DOCTYPE svg PUBLIC "-//W3C//DTD SVG 1.1//EN"
 "http://www.w3.org/Graphics/SVG/1.1/DTD/svg11.dtd">
<!-- Generated by graphviz version 2.47.0 (20210316.0004)
 -->
<!-- Title: dependencies Pages: 1 -->
<svg width="601pt" height="211pt"
 viewBox="0.00 0.00 601.00 211.00" xmlns="http://www.w3.org/2000/svg" xmlns:xlink="http://www.w3.org/1999/xlink">
<g id="graph0" class="graph" transform="scale(1 1) rotate(0) translate(4 207)">
<title>dependencies</title>
<polygon fill="white" stroke="transparent" points="-4,4 -4,-207 597,-207 597,4 -4,4"/>
<text text-anchor="start" x="275.51" y="-42.4" font-family="Times-12" font-weight="bold" font-size="14.00">Legend</text>
<polygon fill="#ffffb3" stroke="transparent" points="62.5,-10 62.5,-30 82.5,-30 82.5,-10 62.5,-10"/>
<text text-anchor="start" x="86.13" y="-15.4" font-family="Times-12" font-size="14.00"> &#160;Declarations</text>
<polygon fill="#8dd3c7" stroke="transparent" points="175.5,-10 175.5,-30 195.5,-30 195.5,-10 175.5,-10"/>
<text text-anchor="start" x="199.23" y="-15.4" font-family="Times-12" font-size="14.00"> &#160;Module</text>
<polygon fill="#80b1d3" stroke="transparent" points="261.5,-10 261.5,-30 281.5,-30 281.5,-10 261.5,-10"/>
<text text-anchor="start" x="285.28" y="-15.4" font-family="Times-12" font-size="14.00"> &#160;Bootstrap</text>
<polygon fill="#fdb462" stroke="transparent" points="358.5,-10 358.5,-30 378.5,-30 378.5,-10 358.5,-10"/>
<text text-anchor="start" x="382.17" y="-15.4" font-family="Times-12" font-size="14.00"> &#160;Providers</text>
<polygon fill="#fb8072" stroke="transparent" points="454.5,-10 454.5,-30 474.5,-30 474.5,-10 454.5,-10"/>
<text text-anchor="start" x="478.23" y="-15.4" font-family="Times-12" font-size="14.00"> &#160;Exports</text>
<g id="clust1" class="cluster">
<title>cluster_AppModule</title>
<polygon fill="none" stroke="black" stroke-dasharray="1,5" points="8,-70 8,-195 585,-195 585,-70 8,-70"/>
</g>
<g id="clust6" class="cluster">
<title>cluster_AppModule_providers</title>
<polygon fill="none" stroke="black" points="447,-78 447,-130 577,-130 577,-78 447,-78"/>
</g>
<g id="clust3" class="cluster">
<title>cluster_AppModule_imports</title>
<polygon fill="none" stroke="black" points="16,-78 16,-130 439,-130 439,-78 16,-78"/>
</g>
<!-- AuthModule -->
<g id="node1" class="node">
<title>AuthModule</title>
<polygon fill="#8dd3c7" stroke="black" points="430.55,-122 427.55,-126 406.55,-126 403.55,-122 343.45,-122 343.45,-86 430.55,-86 430.55,-122"/>
<text text-anchor="middle" x="387" y="-99.8" font-family="Times,serif" font-size="14.00">AuthModule</text>
</g>
<!-- AppModule -->
<g id="node5" class="node">
<title>AppModule</title>
<polygon fill="#8dd3c7" stroke="black" points="324.66,-187 321.66,-191 300.66,-191 297.66,-187 241.34,-187 241.34,-151 324.66,-151 324.66,-187"/>
<text text-anchor="middle" x="283" y="-164.8" font-family="Times,serif" font-size="14.00">AppModule</text>
</g>
<!-- AuthModule&#45;&gt;AppModule -->
<g id="edge1" class="edge">
<title>AuthModule&#45;&gt;AppModule</title>
<path fill="none" stroke="black" d="M387,-122.02C387,-139.37 387,-163 387,-163 387,-163 334.7,-163 334.7,-163"/>
<polygon fill="black" stroke="black" points="334.7,-159.5 324.7,-163 334.7,-166.5 334.7,-159.5"/>
</g>
<!-- CatsModule -->
<g id="node2" class="node">
<title>CatsModule</title>
<polygon fill="#8dd3c7" stroke="black" points="325.44,-122 322.44,-126 301.44,-126 298.44,-122 240.56,-122 240.56,-86 325.44,-86 325.44,-122"/>
<text text-anchor="middle" x="283" y="-99.8" font-family="Times,serif" font-size="14.00">CatsModule</text>
</g>
<!-- CatsModule&#45;&gt;AppModule -->
<g id="edge2" class="edge">
<title>CatsModule&#45;&gt;AppModule</title>
<path fill="none" stroke="black" d="M283,-122.11C283,-122.11 283,-140.99 283,-140.99"/>
<polygon fill="black" stroke="black" points="279.5,-140.99 283,-150.99 286.5,-140.99 279.5,-140.99"/>
</g>
<!-- PostsModule -->
<g id="node3" class="node">
<title>PostsModule</title>
<polygon fill="#8dd3c7" stroke="black" points="222.61,-122 219.61,-126 198.61,-126 195.61,-122 133.39,-122 133.39,-86 222.61,-86 222.61,-122"/>
<text text-anchor="middle" x="178" y="-99.8" font-family="Times,serif" font-size="14.00">PostsModule</text>
</g>
<!-- PostsModule&#45;&gt;AppModule -->
<g id="edge3" class="edge">
<title>PostsModule&#45;&gt;AppModule</title>
<path fill="none" stroke="black" d="M178,-122.02C178,-139.37 178,-163 178,-163 178,-163 231.2,-163 231.2,-163"/>
<polygon fill="black" stroke="black" points="231.2,-166.5 241.2,-163 231.2,-159.5 231.2,-166.5"/>
</g>
<!-- UsersModule -->
<g id="node4" class="node">
<title>UsersModule</title>
<polygon fill="#8dd3c7" stroke="black" points="115.92,-122 112.92,-126 91.92,-126 88.92,-122 24.08,-122 24.08,-86 115.92,-86 115.92,-122"/>
<text text-anchor="middle" x="70" y="-99.8" font-family="Times,serif" font-size="14.00">UsersModule</text>
</g>
<!-- UsersModule&#45;&gt;AppModule -->
<g id="edge4" class="edge">
<title>UsersModule&#45;&gt;AppModule</title>
<path fill="none" stroke="black" d="M70,-122.28C70,-143.32 70,-175 70,-175 70,-175 231.17,-175 231.17,-175"/>
<polygon fill="black" stroke="black" points="231.17,-178.5 241.17,-175 231.17,-171.5 231.17,-178.5"/>
</g>
<!-- AppService -->
<g id="node6" class="node">
<title>AppService</title>
<ellipse fill="#fdb462" stroke="black" cx="512" cy="-104" rx="56.74" ry="18"/>
<text text-anchor="middle" x="512" y="-99.8" font-family="Times,serif" font-size="14.00">AppService</text>
</g>
<!-- AppService&#45;&gt;AppModule -->
<g id="edge5" class="edge">
<title>AppService&#45;&gt;AppModule</title>
<path fill="none" stroke="black" d="M512,-122.28C512,-143.32 512,-175 512,-175 512,-175 334.74,-175 334.74,-175"/>
<polygon fill="black" stroke="black" points="334.74,-171.5 324.74,-175 334.74,-178.5 334.74,-171.5"/>
</g>
</g>
</svg>
