<?xml version="1.0" encoding="UTF-8" standalone="no"?>
<!DOCTYPE svg PUBLIC "-//W3C//DTD SVG 1.1//EN"
 "http://www.w3.org/Graphics/SVG/1.1/DTD/svg11.dtd">
<!-- Generated by graphviz version 2.47.0 (20210316.0004)
 -->
<!-- Title: dependencies Pages: 1 -->
<svg width="1306pt" height="363pt"
 viewBox="0.00 0.00 1306.00 363.00" xmlns="http://www.w3.org/2000/svg" xmlns:xlink="http://www.w3.org/1999/xlink">
<g id="graph0" class="graph" transform="scale(1 1) rotate(0) translate(4 359)">
<title>dependencies</title>
<polygon fill="white" stroke="transparent" points="-4,4 -4,-359 1302,-359 1302,4 -4,4"/>
<text text-anchor="start" x="628.01" y="-42.4" font-family="Times-12" font-weight="bold" font-size="14.00">Legend</text>
<polygon fill="#ffffb3" stroke="transparent" points="415,-10 415,-30 435,-30 435,-10 415,-10"/>
<text text-anchor="start" x="438.63" y="-15.4" font-family="Times-12" font-size="14.00"> &#160;Declarations</text>
<polygon fill="#8dd3c7" stroke="transparent" points="528,-10 528,-30 548,-30 548,-10 528,-10"/>
<text text-anchor="start" x="551.73" y="-15.4" font-family="Times-12" font-size="14.00"> &#160;Module</text>
<polygon fill="#80b1d3" stroke="transparent" points="614,-10 614,-30 634,-30 634,-10 614,-10"/>
<text text-anchor="start" x="637.78" y="-15.4" font-family="Times-12" font-size="14.00"> &#160;Bootstrap</text>
<polygon fill="#fdb462" stroke="transparent" points="711,-10 711,-30 731,-30 731,-10 711,-10"/>
<text text-anchor="start" x="734.67" y="-15.4" font-family="Times-12" font-size="14.00"> &#160;Providers</text>
<polygon fill="#fb8072" stroke="transparent" points="807,-10 807,-30 827,-30 827,-10 807,-10"/>
<text text-anchor="start" x="830.73" y="-15.4" font-family="Times-12" font-size="14.00"> &#160;Exports</text>
<g id="clust1" class="cluster">
<title>cluster_AppModule</title>
<polygon fill="none" stroke="black" stroke-dasharray="1,5" points="168,-146 168,-347 736,-347 736,-146 168,-146"/>
</g>
<g id="clust3" class="cluster">
<title>cluster_AppModule_imports</title>
<polygon fill="none" stroke="black" points="314,-154 314,-282 728,-282 728,-154 314,-154"/>
</g>
<g id="clust6" class="cluster">
<title>cluster_AppModule_providers</title>
<polygon fill="none" stroke="black" points="176,-230 176,-282 306,-282 306,-230 176,-230"/>
</g>
<g id="clust7" class="cluster">
<title>cluster_AuthModule</title>
<polygon fill="none" stroke="black" stroke-dasharray="1,5" points="744,-222 744,-290 1008,-290 1008,-222 744,-222"/>
</g>
<g id="clust10" class="cluster">
<title>cluster_AuthModule_exports</title>
<polygon fill="none" stroke="black" points="894,-230 894,-282 1000,-282 1000,-230 894,-230"/>
</g>
<g id="clust12" class="cluster">
<title>cluster_AuthModule_providers</title>
<polygon fill="none" stroke="black" points="752,-230 752,-282 886,-282 886,-230 752,-230"/>
</g>
<g id="clust13" class="cluster">
<title>cluster_CatsModule</title>
<polygon fill="none" stroke="black" stroke-dasharray="1,5" points="265,-70 265,-138 411,-138 411,-70 265,-70"/>
</g>
<g id="clust18" class="cluster">
<title>cluster_CatsModule_providers</title>
<polygon fill="none" stroke="black" points="273,-78 273,-130 403,-130 403,-78 273,-78"/>
</g>
<g id="clust19" class="cluster">
<title>cluster_PostsModule</title>
<polygon fill="none" stroke="black" stroke-dasharray="1,5" points="8,-146 8,-214 160,-214 160,-146 8,-146"/>
</g>
<g id="clust24" class="cluster">
<title>cluster_PostsModule_providers</title>
<polygon fill="none" stroke="black" points="16,-154 16,-206 152,-206 152,-154 16,-154"/>
</g>
<g id="clust31" class="cluster">
<title>cluster_TagModule</title>
<polygon fill="none" stroke="black" stroke-dasharray="1,5" points="419,-70 419,-138 561,-138 561,-70 419,-70"/>
</g>
<g id="clust36" class="cluster">
<title>cluster_TagModule_providers</title>
<polygon fill="none" stroke="black" points="427,-78 427,-130 553,-130 553,-78 427,-78"/>
</g>
<g id="clust37" class="cluster">
<title>cluster_UsersModule</title>
<polygon fill="none" stroke="black" stroke-dasharray="1,5" points="1016,-222 1016,-290 1290,-290 1290,-222 1016,-222"/>
</g>
<g id="clust40" class="cluster">
<title>cluster_UsersModule_exports</title>
<polygon fill="none" stroke="black" points="1172,-230 1172,-282 1282,-282 1282,-230 1172,-230"/>
</g>
<g id="clust42" class="cluster">
<title>cluster_UsersModule_providers</title>
<polygon fill="none" stroke="black" points="1024,-230 1024,-282 1164,-282 1164,-230 1024,-230"/>
</g>
<!-- AuthModule -->
<g id="node1" class="node">
<title>AuthModule</title>
<polygon fill="#8dd3c7" stroke="black" points="610.55,-198 607.55,-202 586.55,-202 583.55,-198 523.45,-198 523.45,-162 610.55,-162 610.55,-198"/>
<text text-anchor="middle" x="567" y="-175.8" font-family="Times,serif" font-size="14.00">AuthModule</text>
</g>
<!-- AppModule -->
<g id="node6" class="node">
<title>AppModule</title>
<polygon fill="#8dd3c7" stroke="black" points="496.66,-339 493.66,-343 472.66,-343 469.66,-339 413.34,-339 413.34,-303 496.66,-303 496.66,-339"/>
<text text-anchor="middle" x="455" y="-316.8" font-family="Times,serif" font-size="14.00">AppModule</text>
</g>
<!-- AuthModule&#45;&gt;AppModule -->
<g id="edge1" class="edge">
<title>AuthModule&#45;&gt;AppModule</title>
<path fill="none" stroke="black" d="M567,-198.21C567,-235.06 567,-315 567,-315 567,-315 506.7,-315 506.7,-315"/>
<polygon fill="black" stroke="black" points="506.7,-311.5 496.7,-315 506.7,-318.5 506.7,-311.5"/>
</g>
<!-- AuthService  -->
<g id="node8" class="node">
<title>AuthService </title>
<polygon fill="#fb8072" stroke="black" points="991.98,-274 902.02,-274 902.02,-238 991.98,-238 991.98,-274"/>
<text text-anchor="middle" x="947" y="-251.8" font-family="Times,serif" font-size="14.00">AuthService </text>
</g>
<!-- AuthModule&#45;&gt;AuthService  -->
<g id="edge7" class="edge">
<title>AuthModule&#45;&gt;AuthService </title>
<path fill="none" stroke="black" stroke-dasharray="5,2" d="M545.11,-198.11C545.11,-207.9 545.11,-218 545.11,-218 545.11,-218 947,-218 947,-218 947,-218 947,-227.89 947,-227.89"/>
<polygon fill="black" stroke="black" points="943.5,-227.89 947,-237.89 950.5,-227.89 943.5,-227.89"/>
</g>
<!-- CatsModule -->
<g id="node2" class="node">
<title>CatsModule</title>
<polygon fill="#8dd3c7" stroke="black" points="406.44,-198 403.44,-202 382.44,-202 379.44,-198 321.56,-198 321.56,-162 406.44,-162 406.44,-198"/>
<text text-anchor="middle" x="364" y="-175.8" font-family="Times,serif" font-size="14.00">CatsModule</text>
</g>
<!-- CatsModule&#45;&gt;AppModule -->
<g id="edge2" class="edge">
<title>CatsModule&#45;&gt;AppModule</title>
<path fill="none" stroke="black" d="M329.11,-198.21C329.11,-235.06 329.11,-315 329.11,-315 329.11,-315 403.08,-315 403.08,-315"/>
<polygon fill="black" stroke="black" points="403.08,-318.5 413.08,-315 403.08,-311.5 403.08,-318.5"/>
</g>
<!-- PostsModule -->
<g id="node3" class="node">
<title>PostsModule</title>
<polygon fill="#8dd3c7" stroke="black" points="425.61,-274 422.61,-278 401.61,-278 398.61,-274 336.39,-274 336.39,-238 425.61,-238 425.61,-274"/>
<text text-anchor="middle" x="381" y="-251.8" font-family="Times,serif" font-size="14.00">PostsModule</text>
</g>
<!-- PostsModule&#45;&gt;AppModule -->
<g id="edge3" class="edge">
<title>PostsModule&#45;&gt;AppModule</title>
<path fill="none" stroke="black" d="M419.36,-274.11C419.36,-274.11 419.36,-292.99 419.36,-292.99"/>
<polygon fill="black" stroke="black" points="415.86,-292.99 419.36,-302.99 422.86,-292.99 415.86,-292.99"/>
</g>
<!-- TagModule -->
<g id="node4" class="node">
<title>TagModule</title>
<polygon fill="#8dd3c7" stroke="black" points="505.82,-198 502.82,-202 481.82,-202 478.82,-198 424.18,-198 424.18,-162 505.82,-162 505.82,-198"/>
<text text-anchor="middle" x="465" y="-175.8" font-family="Times,serif" font-size="14.00">TagModule</text>
</g>
<!-- TagModule&#45;&gt;AppModule -->
<g id="edge4" class="edge">
<title>TagModule&#45;&gt;AppModule</title>
<path fill="none" stroke="black" d="M461.19,-198.14C461.19,-198.14 461.19,-292.93 461.19,-292.93"/>
<polygon fill="black" stroke="black" points="457.69,-292.92 461.19,-302.93 464.69,-292.93 457.69,-292.92"/>
</g>
<!-- UsersModule -->
<g id="node5" class="node">
<title>UsersModule</title>
<polygon fill="#8dd3c7" stroke="black" points="719.92,-198 716.92,-202 695.92,-202 692.92,-198 628.08,-198 628.08,-162 719.92,-162 719.92,-198"/>
<text text-anchor="middle" x="674" y="-175.8" font-family="Times,serif" font-size="14.00">UsersModule</text>
</g>
<!-- UsersModule&#45;&gt;PostsModule -->
<g id="edge10" class="edge">
<title>UsersModule&#45;&gt;PostsModule</title>
<path fill="none" stroke="black" d="M658.76,-198.03C658.76,-218.77 658.76,-250 658.76,-250 658.76,-250 435.63,-250 435.63,-250"/>
<polygon fill="black" stroke="black" points="435.63,-246.5 425.63,-250 435.63,-253.5 435.63,-246.5"/>
</g>
<!-- UsersModule&#45;&gt;AppModule -->
<g id="edge5" class="edge">
<title>UsersModule&#45;&gt;AppModule</title>
<path fill="none" stroke="black" d="M689.24,-198.03C689.24,-237.28 689.24,-327 689.24,-327 689.24,-327 506.88,-327 506.88,-327"/>
<polygon fill="black" stroke="black" points="506.88,-323.5 496.88,-327 506.88,-330.5 506.88,-323.5"/>
</g>
<!-- UsersService  -->
<g id="node13" class="node">
<title>UsersService </title>
<polygon fill="#fb8072" stroke="black" points="1273.85,-274 1180.15,-274 1180.15,-238 1273.85,-238 1273.85,-274"/>
<text text-anchor="middle" x="1227" y="-251.8" font-family="Times,serif" font-size="14.00">UsersService </text>
</g>
<!-- UsersModule&#45;&gt;UsersService  -->
<g id="edge13" class="edge">
<title>UsersModule&#45;&gt;UsersService </title>
<path fill="none" stroke="black" stroke-dasharray="5,2" d="M719.72,-174C852.22,-174 1227,-174 1227,-174 1227,-174 1227,-227.8 1227,-227.8"/>
<polygon fill="black" stroke="black" points="1223.5,-227.8 1227,-237.8 1230.5,-227.8 1223.5,-227.8"/>
</g>
<!-- AppService -->
<g id="node7" class="node">
<title>AppService</title>
<ellipse fill="#fdb462" stroke="black" cx="241" cy="-256" rx="56.74" ry="18"/>
<text text-anchor="middle" x="241" y="-251.8" font-family="Times,serif" font-size="14.00">AppService</text>
</g>
<!-- AppService&#45;&gt;AppModule -->
<g id="edge6" class="edge">
<title>AppService&#45;&gt;AppModule</title>
<path fill="none" stroke="black" d="M241,-274.28C241,-295.32 241,-327 241,-327 241,-327 403.23,-327 403.23,-327"/>
<polygon fill="black" stroke="black" points="403.23,-330.5 413.23,-327 403.23,-323.5 403.23,-330.5"/>
</g>
<!-- AuthService -->
<g id="node9" class="node">
<title>AuthService</title>
<ellipse fill="#fdb462" stroke="black" cx="819" cy="-256" rx="59.11" ry="18"/>
<text text-anchor="middle" x="819" y="-251.8" font-family="Times,serif" font-size="14.00">AuthService</text>
</g>
<!-- AuthService&#45;&gt;AuthModule -->
<g id="edge8" class="edge">
<title>AuthService&#45;&gt;AuthModule</title>
<path fill="none" stroke="black" d="M763,-262C694.89,-262 588.89,-262 588.89,-262 588.89,-262 588.89,-208.2 588.89,-208.2"/>
<polygon fill="black" stroke="black" points="592.39,-208.2 588.89,-198.2 585.39,-208.2 592.39,-208.2"/>
</g>
<!-- CatsService -->
<g id="node10" class="node">
<title>CatsService</title>
<ellipse fill="#fdb462" stroke="black" cx="338" cy="-104" rx="57.32" ry="18"/>
<text text-anchor="middle" x="338" y="-99.8" font-family="Times,serif" font-size="14.00">CatsService</text>
</g>
<!-- CatsService&#45;&gt;CatsModule -->
<g id="edge9" class="edge">
<title>CatsService&#45;&gt;CatsModule</title>
<path fill="none" stroke="black" d="M358.47,-120.87C358.47,-120.87 358.47,-151.85 358.47,-151.85"/>
<polygon fill="black" stroke="black" points="354.97,-151.85 358.47,-161.85 361.97,-151.85 354.97,-151.85"/>
</g>
<!-- PostsService -->
<g id="node11" class="node">
<title>PostsService</title>
<ellipse fill="#fdb462" stroke="black" cx="84" cy="-180" rx="60.27" ry="18"/>
<text text-anchor="middle" x="84" y="-175.8" font-family="Times,serif" font-size="14.00">PostsService</text>
</g>
<!-- PostsService&#45;&gt;PostsModule -->
<g id="edge11" class="edge">
<title>PostsService&#45;&gt;PostsModule</title>
<path fill="none" stroke="black" d="M144.48,-180C211.34,-180 309.7,-180 309.7,-180 309.7,-180 309.7,-256 309.7,-256 309.7,-256 326.25,-256 326.25,-256"/>
<polygon fill="black" stroke="black" points="326.25,-259.5 336.25,-256 326.25,-252.5 326.25,-259.5"/>
</g>
<!-- TagService -->
<g id="node12" class="node">
<title>TagService</title>
<ellipse fill="#fdb462" stroke="black" cx="490" cy="-104" rx="55.01" ry="18"/>
<text text-anchor="middle" x="490" y="-99.8" font-family="Times,serif" font-size="14.00">TagService</text>
</g>
<!-- TagService&#45;&gt;TagModule -->
<g id="edge12" class="edge">
<title>TagService&#45;&gt;TagModule</title>
<path fill="none" stroke="black" d="M470.33,-120.87C470.33,-120.87 470.33,-151.85 470.33,-151.85"/>
<polygon fill="black" stroke="black" points="466.83,-151.85 470.33,-161.85 473.83,-151.85 466.83,-151.85"/>
</g>
<!-- UsersService -->
<g id="node14" class="node">
<title>UsersService</title>
<ellipse fill="#fdb462" stroke="black" cx="1094" cy="-256" rx="61.95" ry="18"/>
<text text-anchor="middle" x="1094" y="-251.8" font-family="Times,serif" font-size="14.00">UsersService</text>
</g>
<!-- UsersService&#45;&gt;UsersModule -->
<g id="edge14" class="edge">
<title>UsersService&#45;&gt;UsersModule</title>
<path fill="none" stroke="black" d="M1094,-237.97C1094,-217.23 1094,-186 1094,-186 1094,-186 729.75,-186 729.75,-186"/>
<polygon fill="black" stroke="black" points="729.75,-182.5 719.75,-186 729.75,-189.5 729.75,-182.5"/>
</g>
</g>
</svg>
